<svg xmlns="http://www.w3.org/2000/svg" width="453.143" height="79.448" viewBox="0 0 453.143 79.448">
  <path id="Path_554" data-name="Path 554" d="M15.627,1.395-26.291-36.914,14.807-74.4H8.736L-32.2-36.832,8.982,1.395ZM-174.6-52.746a20.019,20.019,0,0,0-2.051-8.531,17.8,17.8,0,0,0-5.086-6.029,22.546,22.546,0,0,0-7.547-3.65,36.078,36.078,0,0,0-9.68-1.23,35.254,35.254,0,0,0-6.891.738,21.031,21.031,0,0,0-6.727,2.625,16.447,16.447,0,0,0-5.168,4.922,14.05,14.05,0,0,0-2.051,7.875,11.741,11.741,0,0,0,2.215,7.383,16.092,16.092,0,0,0,5.865,4.635,39.1,39.1,0,0,0,8.326,2.83q4.594.984,9.434,1.969,4.84,1.066,9.516,2.3a31.544,31.544,0,0,1,8.326,3.609,18.068,18.068,0,0,1,5.865,5.906,17.491,17.491,0,0,1,2.215,9.27,18.637,18.637,0,0,1-2.543,10.008,21.38,21.38,0,0,1-6.439,6.563,27.509,27.509,0,0,1-8.654,3.691A40.552,40.552,0,0,1-194.7,3.2,54.487,54.487,0,0,1-207.252,1.8a28.971,28.971,0,0,1-10.172-4.676,21.982,21.982,0,0,1-6.809-8.285,27.3,27.3,0,0,1-2.461-12.469h4.676a21.91,21.91,0,0,0,1.723,10.582,18.459,18.459,0,0,0,5.947,7.055,26.778,26.778,0,0,0,8.9,4.02A45.566,45.566,0,0,0-194.7-.738a32.079,32.079,0,0,0,7.3-.9,22.535,22.535,0,0,0,7.137-2.83,16.658,16.658,0,0,0,5.414-5.373,14.758,14.758,0,0,0,2.133-8.2,13.037,13.037,0,0,0-2.215-7.875,16.857,16.857,0,0,0-5.865-4.84,35.057,35.057,0,0,0-8.326-2.953q-4.676-1.066-9.516-2.133-4.84-.984-9.434-2.215a32.2,32.2,0,0,1-8.326-3.4,17.5,17.5,0,0,1-5.865-5.619,16.544,16.544,0,0,1-2.215-8.941,17.792,17.792,0,0,1,2.3-9.27,19.219,19.219,0,0,1,5.947-6.275,25.013,25.013,0,0,1,8.244-3.486,36.454,36.454,0,0,1,9.023-1.148,45.223,45.223,0,0,1,11.156,1.313,26.944,26.944,0,0,1,9.023,4.225,21.441,21.441,0,0,1,6.234,7.26,24.513,24.513,0,0,1,2.625,10.746H-174.6ZM-107.338-74.4h5.25L-132.6-30.352V1.477h-4.676V-30.352L-167.631-74.4h5.332l27.48,40.2Zm11.156,0h5.824L-42.451-4.84h.246V-74.4h4.676V1.477h-5.5L-91.26-68.66h-.246V1.395h-4.676Zm118.945,0H54.428a42.294,42.294,0,0,1,9.352.984,20.965,20.965,0,0,1,7.67,3.281,16.133,16.133,0,0,1,5.127,6.07,20.063,20.063,0,0,1,1.887,9.188,21.464,21.464,0,0,1-1.148,7.137,18.4,18.4,0,0,1-3.24,5.783,18.514,18.514,0,0,1-5.127,4.225,18.84,18.84,0,0,1-6.727,2.3v.246q8.449.984,11.32,5.66a24.454,24.454,0,0,1,3.445,10.582A92.884,92.884,0,0,1,77.4-7.3q-.164,5.742,2.133,8.777H74.361a17.049,17.049,0,0,1-1.8-9.8,61,61,0,0,0-.246-11.443A16.882,16.882,0,0,0,68-29.162q-3.568-3.9-13.576-3.9H27.439V1.477H22.764ZM54.428-37.16a28.615,28.615,0,0,0,7.711-.984,16.384,16.384,0,0,0,6.111-3.117,14.732,14.732,0,0,0,4.061-5.414,19.094,19.094,0,0,0,1.477-7.875,15.815,15.815,0,0,0-1.559-7.3,14.185,14.185,0,0,0-4.307-4.922,17.431,17.431,0,0,0-6.193-2.707,28.715,28.715,0,0,0-7.3-.9H27.439V-37.16ZM219.885-52.746a21.763,21.763,0,0,0-2.051-8.531,17.8,17.8,0,0,0-5.086-6.029,22.469,22.469,0,0,0-7.629-3.65,35.177,35.177,0,0,0-9.6-1.23,35.254,35.254,0,0,0-6.891.738,20.531,20.531,0,0,0-6.768,2.625,16.607,16.607,0,0,0-5.127,4.922,14.05,14.05,0,0,0-2.051,7.875,11.741,11.741,0,0,0,2.215,7.383,16.092,16.092,0,0,0,5.865,4.635,39.4,39.4,0,0,0,8.244,2.83q4.676.984,9.516,1.969,4.84,1.066,9.516,2.3a31.775,31.775,0,0,1,8.244,3.609,18.87,18.87,0,0,1,5.947,5.906,17.491,17.491,0,0,1,2.215,9.27A18.637,18.637,0,0,1,223.9-8.121a21.208,21.208,0,0,1-6.48,6.563,28.116,28.116,0,0,1-8.613,3.691A40.552,40.552,0,0,1,199.787,3.2,53.808,53.808,0,0,1,187.236,1.8a29.4,29.4,0,0,1-10.213-4.676,21.685,21.685,0,0,1-6.85-8.367,27.532,27.532,0,0,1-2.379-12.387h4.676a20.475,20.475,0,0,0,1.723,10.5,18.791,18.791,0,0,0,5.947,7.1,25.174,25.174,0,0,0,8.9,3.979A45.566,45.566,0,0,0,199.787-.82a34.789,34.789,0,0,0,7.219-.82,21.494,21.494,0,0,0,7.178-2.871,18.42,18.42,0,0,0,5.455-5.332,14.918,14.918,0,0,0,2.133-8.285,12.89,12.89,0,0,0-2.215-7.793,16.107,16.107,0,0,0-5.865-4.881,39.084,39.084,0,0,0-8.326-2.994q-4.676-1.066-9.516-2.051t-9.516-2.215a31.518,31.518,0,0,1-8.244-3.445,17.881,17.881,0,0,1-5.865-5.66,16.12,16.12,0,0,1-2.215-8.859,17.521,17.521,0,0,1,2.3-9.27,19.219,19.219,0,0,1,5.947-6.275,26.458,26.458,0,0,1,8.162-3.568,40.163,40.163,0,0,1,9.105-1.066A44.869,44.869,0,0,1,206.6-74.895a26.239,26.239,0,0,1,9.064,4.143,21.041,21.041,0,0,1,6.275,7.342,25.946,25.946,0,0,1,2.625,10.664Zm-90.562-2.707a20.266,20.266,0,0,0-7.793-2.625,21.866,21.866,0,0,0-7.916.615,20.7,20.7,0,0,0-7.1,3.486,19.942,19.942,0,0,0-5.5,6.152l3.938,2.215a15.753,15.753,0,0,1,4.266-4.84,16.572,16.572,0,0,1,5.537-2.707,15.672,15.672,0,0,1,6.193-.41,14.57,14.57,0,0,1,6.07,2.051,14.594,14.594,0,0,1,4.84,4.266,15.248,15.248,0,0,1,2.748,5.537,17.363,17.363,0,0,1,.451,6.193,16.312,16.312,0,0,1-2.051,6.07,15.348,15.348,0,0,1-7.3,6.645,16.619,16.619,0,0,1-9.6,1.23l-2.625,1.8,1.887,2.625a20.657,20.657,0,0,0,12.182-1.6,20.1,20.1,0,0,0,9.311-8.408,20.9,20.9,0,0,0,2.625-7.793,20.714,20.714,0,0,0-.533-7.916,20.7,20.7,0,0,0-3.486-7.1A19.8,19.8,0,0,0,129.322-55.453ZM116.361-10.09l-1.8-2.543a29.311,29.311,0,0,1-4.225-1.148,23.7,23.7,0,0,1-4.061-1.887,24.288,24.288,0,0,1-7.465-6.645,24.85,24.85,0,0,1-4.266-8.654,25.787,25.787,0,0,1-.656-9.639,24.248,24.248,0,0,1,3.2-9.516,24.289,24.289,0,0,1,6.645-7.465,24.8,24.8,0,0,1,8.7-4.266,25.689,25.689,0,0,1,9.6-.656,24.248,24.248,0,0,1,9.516,3.2,25.889,25.889,0,0,1,5.291,4.061,23.317,23.317,0,0,1,3.9,5.127l3.938-2.215a29.782,29.782,0,0,0-4.635-6.07,29.739,29.739,0,0,0-6.275-4.84A30.008,30.008,0,0,0,122.6-67.02a30.472,30.472,0,0,0-11.361.82,29.4,29.4,0,0,0-10.213,5,29.267,29.267,0,0,0-7.875,8.859A30.008,30.008,0,0,0,89.373-41.18a30.47,30.47,0,0,0,.82,11.361,29.4,29.4,0,0,0,5,10.213,29.267,29.267,0,0,0,8.859,7.875,31.274,31.274,0,0,0,4.758,2.215A27.336,27.336,0,0,0,113.736-8.2Zm21.9-60.949a37.917,37.917,0,0,0-14.6-4.922,39.8,39.8,0,0,0-14.971,1.025A40.645,40.645,0,0,0,95.2-68.5a35.811,35.811,0,0,0-10.172,11.4h0l4.1,2.543q0-.082.041-.082t.041-.082A32.052,32.052,0,0,1,98.15-64.723a33.51,33.51,0,0,1,11.813-5.783,35.827,35.827,0,0,1,13.125-.943,32.317,32.317,0,0,1,12.879,4.266,33.609,33.609,0,0,1,10.172,9.023,35.814,35.814,0,0,1,5.742,11.854,35.342,35.342,0,0,1,.984,13.166,32.237,32.237,0,0,1-4.266,12.8,32.008,32.008,0,0,1-6.645,8.121,35.441,35.441,0,0,1-8.7,5.66,33.9,33.9,0,0,1-9.926,2.789A34.47,34.47,0,0,1,113-3.855l-2.625,1.8L112.26.574A40.141,40.141,0,0,0,123.99.82,39.945,39.945,0,0,0,135.27-2.3a38.937,38.937,0,0,0,9.885-6.316,38.362,38.362,0,0,0,7.629-9.352,35.279,35.279,0,0,0,4.758-14.52,40.123,40.123,0,0,0-1.148-14.93,39.671,39.671,0,0,0-6.645-13.453A36.7,36.7,0,0,0,138.264-71.039Z" transform="translate(226.696 76.249)" fill="#1d2535" opacity="0.16"/>
</svg>
